<?xml version="1.0" ?><svg id="Layer_1" style="enable-background:new 0 0 24 24;" version="1.1" viewBox="0 0 24 24" xml:space="preserve" xmlns="http://www.w3.org/2000/svg" xmlns:xlink="http://www.w3.org/1999/xlink"><style type="text/css">
	.st0{fill:#5F6B89;}
	.st1{fill:#EF7F5E;}
	.st2{fill:#E5F0F9;}
	.st3{fill:#FF5F5F;}
	.st4{fill:#9076FF;}
	.st5{fill:#527BFF;}
	.st6{fill:#5CF2CA;}
	.st7{fill:#5BDEF4;}
	.st8{fill:#7AED8C;}
	.st9{fill:#5CC7F2;}
	.st10{fill:#F2C65A;}
	.st11{fill:url(#SVGID_1_);}
	.st12{fill:url(#SVGID_2_);}
	.st13{fill:url(#SVGID_3_);}
	.st14{fill:#F45D9A;}
	.st15{opacity:0.35;fill:#37415E;}
	.st16{fill:#37415E;}
</style><path class="st0" d="M21.7,11.01c0.46,4.61-2.29,8.83-6.66,10.25c-0.12,0.03-0.24,0.02-0.34-0.05c-0.05-0.04-0.13-0.12-0.13-0.27  v-3.26c0-0.37-0.13-0.73-0.34-1.03c2.36-0.22,4.12-1.93,4.37-4.33c0.13-1.28-0.2-2.48-0.93-3.41c0-0.01,0-0.03,0.01-0.05  c0.07-0.43,0.26-1.56-0.24-2.72C17.4,6.06,17.32,6,17.23,5.99c-0.06,0-1.29-0.07-2.57,1.03C13.89,6.8,13.04,6.69,12,6.69  S10.11,6.8,9.34,7.02c-1.28-1.1-2.51-1.03-2.57-1.03C6.68,6,6.6,6.06,6.56,6.14C6.06,7.3,6.25,8.43,6.32,8.86  C6.33,8.89,6.33,8.9,6.33,8.92c-0.73,0.92-1.06,2.12-0.93,3.4c0.24,2.4,2.01,4.11,4.36,4.33c-0.14,0.2-0.23,0.43-0.28,0.69  C9,17.61,8.18,17.92,7.46,17.3c-0.3-0.26-0.52-0.51-0.72-0.72c-0.45-0.5-0.82-0.9-1.66-0.81c-0.16,0.01-0.29,0.12-0.33,0.28  c-0.05,0.16,0.01,0.32,0.15,0.42c0.37,0.25,0.59,0.68,0.79,1.1l0.03,0.07c0.48,0.99,1.56,1.78,2.7,1.78c0.33,0,0.66-0.07,0.98-0.21  c0.01-0.01,0.02-0.01,0.03-0.02v1.75c0,0.15-0.08,0.23-0.13,0.27c-0.1,0.07-0.22,0.09-0.33,0.05C4.95,19.95,2.25,16.22,2.25,12  c0-2.77,1.18-5.41,3.25-7.26C7.59,2.86,10.28,2,13.1,2.31C17.64,2.81,21.26,6.47,21.7,11.01z"/><path class="st16" d="M22.2,10.97c-0.47-4.78-4.27-8.63-9.04-9.16c-2.96-0.32-5.8,0.59-8,2.55C2.99,6.31,1.75,9.09,1.75,12  c0,4.44,2.84,8.35,7.07,9.74c0.08,0.03,0.17,0.04,0.26,0.04c0.18,0,0.36-0.06,0.51-0.17c0.22-0.16,0.34-0.4,0.34-0.67v-2.18  c0-0.03-0.02-0.05-0.03-0.07c-0.01-0.03,0-0.06-0.02-0.08c0-0.01-0.01-0.01-0.02-0.01c-0.02-0.02-0.05-0.03-0.08-0.05  c-0.03-0.01-0.05-0.03-0.08-0.03c-0.01,0-0.01-0.01-0.02-0.01c-0.03,0-0.05,0.02-0.07,0.03c-0.03,0.01-0.06,0-0.08,0.02  c-0.09,0.07-0.2,0.13-0.33,0.19c-1.16,0.52-2.53-0.28-3.03-1.33l-0.03-0.07c-0.18-0.37-0.38-0.77-0.7-1.09  c0.38,0.04,0.58,0.26,0.93,0.66c0.2,0.21,0.44,0.48,0.77,0.76c1.03,0.9,2.22,0.32,2.68,0.03c0.01,0,0.01,0,0.01,0  c0.02-0.02,0.04-0.04,0.06-0.07c0.02-0.03,0.03-0.06,0.04-0.09c0-0.01,0.01-0.02,0.01-0.03c0.04-0.34,0.23-0.67,0.5-0.87  c0,0,0-0.01,0.01-0.02c0.02-0.02,0.03-0.05,0.05-0.08c0.01-0.03,0.03-0.05,0.03-0.08c0-0.01,0.01-0.01,0.01-0.02  c0-0.03-0.02-0.05-0.03-0.07c-0.01-0.03,0-0.06-0.02-0.08c0-0.01-0.01,0-0.02-0.01c-0.02-0.02-0.05-0.03-0.08-0.05  c-0.03-0.01-0.05-0.03-0.08-0.03c-0.01,0-0.01-0.01-0.02-0.01c-2.35,0-4.16-1.62-4.39-3.94c-0.13-1.2,0.18-2.28,0.88-3.12  C6.82,9.1,6.84,9.03,6.84,8.97c0-0.03-0.01-0.1-0.03-0.19C6.75,8.41,6.59,7.47,6.96,6.49c0.35,0.02,1.25,0.16,2.15,0.98  c0,0.01,0.01,0.01,0.01,0.01c0.05,0.04,0.1,0.06,0.16,0.06h0.01H9.3c0.02,0,0.04-0.01,0.05-0.01C10.11,7.3,10.96,7.19,12,7.19  s1.89,0.11,2.65,0.34c0.01,0,0.03,0.01,0.05,0.01c0.01,0,0.01,0,0.01,0c0.01,0,0.01,0,0.01,0c0.06,0,0.11-0.02,0.16-0.06  c0,0,0.01,0,0.01-0.01c0.9-0.82,1.8-0.96,2.15-0.98c0.37,0.98,0.21,1.92,0.15,2.29c-0.02,0.09-0.03,0.16-0.03,0.19v0.01  c0,0.06,0.02,0.12,0.06,0.16c0.7,0.84,1.01,1.92,0.88,3.12c-0.23,2.32-2.04,3.94-4.39,3.94c-0.01,0-0.01,0.01-0.02,0.01  c-0.03,0-0.05,0.02-0.08,0.03c-0.03,0.02-0.06,0.03-0.08,0.05c-0.01,0-0.02,0-0.02,0.01c-0.02,0.02-0.01,0.05-0.02,0.08  c-0.01,0.02-0.03,0.04-0.03,0.07c0,0.01,0.01,0.01,0.01,0.02c0,0.03,0.02,0.05,0.03,0.08c0.02,0.03,0.03,0.06,0.05,0.08  c0.01,0.01,0,0.02,0.01,0.02c0.32,0.24,0.51,0.63,0.51,1.03v3.26c0,0.27,0.12,0.51,0.34,0.67c0.22,0.16,0.51,0.21,0.78,0.13  C19.79,20.24,22.68,15.81,22.2,10.97z M15.04,21.26c-0.12,0.03-0.24,0.02-0.34-0.05c-0.05-0.04-0.13-0.12-0.13-0.27v-3.26  c0-0.37-0.13-0.73-0.34-1.03c2.36-0.22,4.12-1.93,4.37-4.33c0.13-1.28-0.2-2.48-0.93-3.41c0-0.01,0-0.03,0.01-0.05  c0.07-0.43,0.26-1.56-0.24-2.72C17.4,6.06,17.32,6,17.23,5.99c-0.06,0-1.29-0.07-2.57,1.03C13.89,6.8,13.04,6.69,12,6.69  S10.11,6.8,9.34,7.02c-1.28-1.1-2.51-1.03-2.57-1.03C6.68,6,6.6,6.06,6.56,6.14C6.06,7.3,6.25,8.43,6.32,8.86  C6.33,8.89,6.33,8.9,6.33,8.92c-0.73,0.92-1.06,2.12-0.93,3.4c0.24,2.4,2.01,4.11,4.36,4.33c-0.14,0.2-0.23,0.43-0.28,0.69  C9,17.61,8.18,17.92,7.46,17.3c-0.3-0.26-0.52-0.51-0.72-0.72c-0.45-0.5-0.82-0.9-1.66-0.81c-0.16,0.01-0.29,0.12-0.33,0.28  c-0.05,0.16,0.01,0.32,0.15,0.42c0.37,0.25,0.59,0.68,0.79,1.1l0.03,0.07c0.48,0.99,1.56,1.78,2.7,1.78c0.33,0,0.66-0.07,0.98-0.21  c0.01-0.01,0.02-0.01,0.03-0.02v1.75c0,0.15-0.08,0.23-0.13,0.27c-0.1,0.07-0.22,0.09-0.33,0.05C4.95,19.95,2.25,16.22,2.25,12  c0-2.77,1.18-5.41,3.25-7.26C7.59,2.86,10.28,2,13.1,2.31c4.54,0.5,8.16,4.16,8.6,8.7C22.16,15.62,19.41,19.84,15.04,21.26z"/></svg>