<?xml version="1.0" ?><svg id="Layer_1" style="enable-background:new 0 0 24 24;" version="1.1" viewBox="0 0 24 24" xml:space="preserve" xmlns="http://www.w3.org/2000/svg" xmlns:xlink="http://www.w3.org/1999/xlink"><style type="text/css">
	.st0{fill:#5F6B89;}
	.st1{fill:#EF7F5E;}
	.st2{fill:#E5F0F9;}
	.st3{fill:#FF5F5F;}
	.st4{fill:#9076FF;}
	.st5{fill:#527BFF;}
	.st6{fill:#5CF2CA;}
	.st7{fill:#5BDEF4;}
	.st8{fill:#7AED8C;}
	.st9{fill:#5CC7F2;}
	.st10{fill:#F2C65A;}
	.st11{fill:url(#SVGID_1_);}
	.st12{fill:url(#SVGID_2_);}
	.st13{fill:url(#SVGID_3_);}
	.st14{fill:#F45D9A;}
	.st15{opacity:0.35;fill:#37415E;}
	.st16{fill:#37415E;}
</style><path class="st3" d="M21.75,6.97v11.68c0,0.42-0.34,0.75-0.75,0.75h-1.07V8.29L21.75,6.97z"/><path class="st3" d="M21.75,5.35v1.01L12,13.39L2.25,6.36V5.35C2.25,4.93,2.59,4.6,3,4.6h0.11l8.74,6.3  c0.05,0.03,0.1,0.05,0.15,0.05s0.1-0.02,0.15-0.05l8.74-6.3H21C21.41,4.6,21.75,4.93,21.75,5.35z"/><polygon class="st2" points="20.04,4.6 12,10.39 3.96,4.6 "/><path class="st2" d="M19.43,8.65V19.4H4.57V8.65l7.28,5.25c0.05,0.03,0.1,0.05,0.15,0.05s0.1-0.02,0.15-0.05L19.43,8.65z"/><path class="st3" d="M4.07,8.29V19.4H3c-0.41,0-0.75-0.33-0.75-0.75V6.97L4.07,8.29z"/><path class="st16" d="M21,4.1H3c-0.69,0-1.25,0.56-1.25,1.25v13.3c0,0.69,0.56,1.25,1.25,1.25h18c0.69,0,1.25-0.56,1.25-1.25V5.35  C22.25,4.66,21.69,4.1,21,4.1z M20.04,4.6L12,10.39L3.96,4.6H20.04z M4.07,19.4H3c-0.41,0-0.75-0.33-0.75-0.75V6.97l1.82,1.32V19.4z   M19.43,19.4H4.57V8.65l7.28,5.25c0.05,0.03,0.1,0.05,0.15,0.05s0.1-0.02,0.15-0.05l7.28-5.25V19.4z M21.75,18.65  c0,0.42-0.34,0.75-0.75,0.75h-1.07V8.29l1.82-1.32V18.65z M21.75,6.36L12,13.39L2.25,6.36V5.35C2.25,4.93,2.59,4.6,3,4.6h0.11  l8.74,6.3c0.05,0.03,0.1,0.05,0.15,0.05s0.1-0.02,0.15-0.05l8.74-6.3H21c0.41,0,0.75,0.33,0.75,0.75V6.36z"/></svg>